<?xml version="1.0" encoding="utf-8"?>
<!-- Generator: Adobe Illustrator 23.0.1, SVG Export Plug-In . SVG Version: 6.00 Build 0)  -->
<svg version="1.1" xmlns="http://www.w3.org/2000/svg" xmlns:xlink="http://www.w3.org/1999/xlink" x="0px" y="0px"
	 viewBox="0 0 800 600" style="enable-background:new 0 0 800 600;" xml:space="preserve">
<style type="text/css">
	.st0{fill:#808080;}
	.st1{font-family:'Roboto-Regular';}
	.st2{font-size:14px;}
</style>
<g id="Angola">
	<path class="st0" d="M214.391,39.485l-0.324,1.113l-1.385,0.502l-7.606,1.779l-1.173,0.667l-0.649,0.723l-0.44,0.819l-0.252,0.872
		l-0.08,0.904l-0.36,0.47l-1.742,1.012l-0.58,0.478l-0.336,0.832l-0.08,0.615l-0.284,0.446l-0.949,0.322l-1.493,0.112l-0.344,0.263
		l-0.116,0.792l-0.629,1.467l-1.445,0.928l-3.251,1.125l-0.324,0.04l-0.288-0.04l-0.244,0.076l-0.192,0.378l-0.02,0.329l0.072,0.418
		l0.152,0.37l0.22,0.205l2.386,0.844l0.468,0.334l0.256,1.306l-0.116,2.987l-0.128,3.317l-0.18,4.648l-0.184,4.846l-0.096,2.526
		l-0.136,3.605l-2.846-0.028l-3.527-0.036l-3.311,0.471l-1.876,1.041l-0.009-0.013l-1.879-3.187l-0.564-2.464l0.889-2.464
		l0.473-0.443l0.426-0.101l0.445-0.032l0.533-0.222l0.375-0.405l0.151-0.497v-1.219l-0.113-0.494l-0.586-1.387l-0.687-1.368
		l-0.969-2.607l0.028-1.05l-1.539-2.706l-0.3-1.855l-2.125-2.53l-1.806-2.869l0.006-0.418l0.46,0.125l0.76,0.151l0.506,0.152
		l0.253,0.228l0.253,0.91l0.761,0.175l0.631-0.404l0.404-0.632l0.05-0.531l0.355-0.203l-0.026-0.758l-0.177-0.354l-0.354-0.126
		l-0.405-0.025l-0.303,0.43l-0.076,0.556l0.025,0.834l-0.228,0.202l-0.278-0.126l-0.177-0.784l-0.253-0.405l-0.304-0.101
		l-0.202,0.354l-0.38,0.026l-0.456-0.253l-0.558,0.076l-0.811-0.126l0.328-0.429l4.367-3.72l1.021-1.647l1.177-3.985l0.18-0.177
		h0.46l0.364,0.221l0.352,0.446l0.488,0.908l0.344-0.297l0.56-0.217l0.589-0.141l1.313-0.137l0.553-0.213l0.404-0.478l1.617-3.214
		l0.184-0.811l-0.048-1.667l0.364-0.542l1.049,0.132l0.581-0.052l2.638-0.863l4.296-0.787l0.608-0.225l0.428-0.45l0.841-1.566
		l0.54-0.622l0.632-0.506l0.701-0.402l0.524-0.626l0.312-0.928l0.44-0.895L202.305,30l0.533,0.193l0.28,0.152l0.713,0.386
		l0.532,0.112l0.601-0.125l0.464-0.209l0.464-0.048l0.604,0.345l0.564,0.783l0.697,1.867l0.757,0.859l1.533,1.225l2.542,3.044
		L214.391,39.485z M636.353,283.425l0.264,1.936l0.244,0.669l0.753,1.162l0.144,0.579l-0.248,0.759l-0.14,0.706l0.032,2.186
		l-0.172,1.522l0.22,0.547l0.757,0.122l-0.16,5.624l0.224,1.008l1.709,3.814l0.024,0.474l-0.372,0.535l-1.213,0.952l-0.42,0.588
		l-0.092,0.437l-0.012,0.498l0.1,0.952l-0.004,0.641l-0.168,0.466l-1.073,1.663l-0.689,1.577l-0.204,0.781v1.001l0.296,0.764
		l0.404,0.752l0.332,0.957l0.164,2.956l0.18,0.973l-0.064,0.401l-0.833,1.927l-0.232,5.099l-0.26,5.556l0.204,1.773l0.841,1.229
		l0.981,1.032l0.396,1l0.16,2.422l0.38,1.787l-0.108,0.676l-0.316,0.676l-1.309,1.923l-1.753,2.583l-0.468,1.144l-0.697,2.765
		l-0.737,2.93l-0.753,1.789l-0.256,1.572l0.352,1.273l0.789,1.113l2.11,2.181l0.861,1.142l0.661,1.261l0.456,1.446h-1.253h-4.808
		h-4.816h-4.812h-4.816h-4.816h-4.812h-4.816h-4.816h-4.812h-4.816h-4.812h-4.812h-4.812h-4.812h-4.816h-4.816l0.004,5.992
		l0.004,5.99l0.004,6.004l0.004,6.003l0.002,3.613l0.002,2.398l0.004,6.007l0.004,6.019l0.004,6.015l0.004,6.023l0.004,6.031
		l0.004,6.031l0.004,6.035l0.004,6.04l0.004,6.044l0.004,6.048l0.004,6.052v1.599v0.852v1.217v1.77l-0.004,4.107l-0.008,4.104
		l-0.012,4.106l-0.004,4.113l-0.008,1.82l0.036,0.112v2.558v2.446v0.65l0.088,0.871l1.029,1.301l1.349,2.185l-0.981,0.033
		l-0.316-0.033l0.412,0.567l0.14,0.509l0.068,0.513l0.172,0.592l0.172,0.238l0.464,0.409l0.132,0.179l0.064,0.392l0.02,0.893
		l0.064,0.242l1.289,0.296l0.637,0.3l-0.076,0.505l-0.36,0.518l-0.32,0.71l-0.204,0.755l-0.032,0.676l0.18,0.501l0.664,1.123
		l0.216,0.58l-0.028,0.551l-0.1,0.434l0.16,0.292l0.741,0.1l0.42,0.251l0.168,0.585l0.104,0.685l0.252,0.551l3.335,2.741
		l0.524,0.184l0.3-0.033l0.584-0.226l0.372-0.092l0.14-0.125l0.132-0.075l0.188,0.113l0.288,0.314l0.152,0.092l1.033,0.18
		l0.38,0.384l0.256,0.531l0.609,0.832l0.264,0.485l0.208,0.242l0.216,0.109l0.621,0.117l0.36,0.217l0.3,0.351l2.806,4.487
		l0.412,1.138l0.34,0.515l0.557,0.343l1.225,0.385l0.492,0.515l0.08,0.326l-0.004,0.707l0.164,0.347l0.228,0.176l0.492,0.004
		l2.31,0.942l0.54,0.402l1.737,1.897l0.785,1.06l0.544,1.081l0.428,1.889l0.36,0.599l0.508,0.436l1.205,0.65l1.541,1.404
		l1.045,0.692l2.338,1.023l1.846,0.507l0.56,0.323l1.617,1.757l0.232,0.461l0.3,1.091l0.733,1.208l0.953,1.099l0.925,0.76
		l1.713,0.672l0.404,0.436l0.112,0.651l-0.084,0.634l0.024,0.579l0.472,0.508l0.669,0.189l0.669-0.076l0.661-0.172l0.661-0.092
		l1.257,0.105l0.565,0.168l0.573,0.277l0.793,0.584l0.729,0.899l0.885,0.739l-0.276,0.584l0.032,0.521l0.22,0.525l-3.239,0.639
		l-7.906,1.567l-7.906,1.572l-7.906,1.576l-7.911,1.568l-9.72,1.88l-9.724,1.88l-9.72,1.877l-9.72,1.881l-2.79,0.539l-0.725,0.21
		l-0.22-0.076l-0.633-0.838l-1.153-0.572l-2.206-0.791l-1.758-0.98l-0.625-0.156l-1.581,0.105l-0.56-0.105l-0.705,0.126
		l-0.661,0.299l-0.644,0.16l-0.633-0.282l-3.579,0.976l-0.552,0.151l-3.027,0.829l-0.536,1.078l-1.273,0.253l-1.149,0.429
		L513.904,570l-0.837-0.766l-1.169-0.598l-0.657-0.181l-0.292,0.362l-0.288,0.168l-0.632-0.109l-0.641-0.278l-0.288-0.341
		l-0.617-0.341l-1.401-0.135l-1.525,0.076l-0.977,0.261l-0.488-0.248l-1.121-0.838l-1.333-0.669l-0.388-0.316l-0.753-0.841
		l-0.873-0.782l-0.965-0.421l-1.001,0.252l-1.513-1.279l-0.448-0.164l-1.293,0.24l-0.536,0.034l-0.416-0.273l-1.345,1.136
		l-0.913-0.383l-1.037-0.05l-0.925,0.244l-0.568,0.496l-0.288-0.307l-0.548,0.244l-0.504,0.08l-1.061-0.017l-2.258,0.227
		l-0.376-0.055l-1.357-0.479l-1.453-0.833h-6.121l-0.244,0.168l-0.452,0.757l-0.192,0.214l-0.612-0.05l-0.897-0.286l-0.805-0.37
		l-0.352-0.294l-0.348-0.732l-0.797-0.206l-0.885,0.092l-2.206,0.5l-6.645,0.088l-6.153-1.85l-0.612-0.404l-1.733,0.126l-1.153-0.24
		l-0.436-0.013l-0.833,0.177l-1.325,0.526l-3.275,0.168l-5.056-0.938l-3.455-1.736l-1.505-0.362l-0.533-0.462l-0.773-1.034
		l-2.222-2.349l-0.372-0.26l-0.717-0.353l-0.368-0.37l-0.208-0.37l-0.196-0.718l-0.124-0.298l-2.022-1.688l-0.517-0.281
		l-0.124-0.449l-1.329-2.598l-0.925-0.277l-0.112-0.084l-0.068-0.42l-0.637-1.536l-0.252-0.206l-0.252-0.159l-0.14-0.378
		l-0.056-0.248l-0.304-0.025h-2.07l-9.94-0.004l-5.236-0.002l-4.7-0.002l-9.936-0.004h-9.936l-3.375-0.001l-6.565-0.003l-9.94-0.004
		h-9.936l-9.936-0.004h-9.932h-9.94l-9.936-0.004l-0.431,0l-9.505-0.004l-9.936-0.004h-9.94l-9.94-0.004l-9.936-0.004h-2.646h-0.012
		l-0.44-0.004l-0.036,0.206l-0.364,0.805l-0.857,0.134l-1.713-0.285l-0.264,0.096l-0.608,0.361l-0.424,0.126h-0.46l-0.628-0.201
		l-0.841-0.105l-0.709-0.227l-0.436-0.05l-0.348,0.092l-0.617,0.399l-0.48,0.092l-0.901-0.18l-0.564-0.445l-1.777-2.399
		l-0.484-0.428l-3.639-2.046l-3.729-2.088l-3.395-2.808l-3.299-1.843l0.372-1.16l-0.336-0.662l-0.56-0.544l-0.508-1.599
		l-0.576-0.557l-0.809-0.343l-0.921-0.113l-0.692-0.214l-1.365-0.946l-0.708-0.251l-0.688,0.183l-0.945,0.252l-0.244-0.021
		l-0.264-0.172l-0.597,0.146l-0.989,0.469v-0.301l-0.4,0.151l-0.46-0.013l-0.869-0.138l-0.416-0.209l-0.256-0.393l-0.284-0.23
		l-0.513,0.276l-0.72-0.532l-0.845,0.054l-0.881,0.301l-4.163,0.732l-2.038,1.193l-1.209,0.276l-0.753,0.377l-0.925,0.255
		l-0.188,0.394l-0.068,0.456l-0.16,0.364l-0.336,0.234l-0.689,0.214l-0.296,0.13l-0.356,0.314l-0.316,0.591l-0.256,0.344
		l-1.317,0.415l-1.721,0.83l-1.361,1.165l-0.729,0.377l-0.977,0.142l-0.949,0.327l-1.733,1.517l-0.941,0.486l-0.488,0.042
		l-1.369-0.314l-2.274-0.193l-0.729-0.247l-0.921-0.549l-0.4,0.025l-0.528,0.432l-0.561,0.231l-2.51-0.092l-2.79,0.273l-0.128-0.168
		l-0.108-0.381l-0.184-0.381l-0.368-0.172l-0.408-0.1l-0.436-0.239l-0.38-0.272l-0.216-0.222l-0.152-0.318l-0.064-0.31l-0.092-0.276
		l-0.248-0.226l-0.356-0.117l-0.188,0.113l-0.208,0.184l-0.44,0.096l-1.329-0.402l-0.4-0.26l-0.276-0.021l-0.228,0.088l-0.272,0.067
		l-1.794,0.243l-1.777,0.524l-1.585,0.754l-1.826,1.383l-1.589,0.763l-0.713,0.486l-0.228,0.327l-0.084,0.268l-0.196,0.176
		l-0.572,0.059l-0.416-0.084l-0.673-0.361l-0.517-0.088l-0.002-0.002v-0.3l-0.315-0.247l-0.202-0.406l-0.079-0.498l0.041-0.535
		l0.265-1.561l0.025-5.359l0.497-3.481l0.306-3.14l-0.46-2.871l0-1.225l0.689-0.191l0.192,1.722l0.497,0.726l0.649-1.722
		l-0.11-3.106l0.211-1.04l-0.359-3.842l0.315-4.235l-1.658-15.304l0.025-0.791l0.183-0.653l0.87-1.824l-0.876-1.861l-1.849-2.918
		l-0.042-1.735l0.63-2.336l0.454-0.367l0.82-0.511l0.785-0.324l0.344,0.233l0.176,0.701l0.445,0.216l0.558-0.17l1.954-1.887
		l0.334-0.616l0.123-0.54l0.038-1.123l0.104-0.557l0.788-0.956l2.383-1.414l0.508-0.923l0.129-1.165l0.775-3.023l0.46-1.079
		l-0.4-1.06l0.132-1.187l0.511-2.279l0.378-4.722l0.208-0.611l0.34-0.529l1.333-1.28l0.29-0.072l0.593,0.32h0.318l0.359-0.415
		l0.173-0.669l-0.032-0.712l-0.236-0.542l-0.577-0.294l-0.41,0.131l-0.189-0.059l0.098-0.852l0.381-1.273l1.018-2.412l0.208-1.403
		l0.154-0.542l0.372-0.444l0.438-0.408l0.356-0.411l0.214-0.545l0.356-2.198l0.003-0.528l0.091-0.287l0.287-0.365l0.262-0.007
		l0.255,0.075l0.274-0.114l0.337-0.522l0.328-1.109l0.772-1.271l-0.016-0.711l-0.164-0.724l-0.066-0.749l0.091-0.502l0.306-0.912
		l0.624-2.932l0.243-3.198l0.189-0.54l0.612-1.016l0.451-1.406l0.419-2.656l0.126-2.564l-0.126-1.301l-0.41-1.346l-0.284-0.644
		l-0.082-0.302l-0.041-0.413l-0.054-0.211l-0.173-0.38l-0.038-0.228l0.054-0.289l0.132,0.016l0.176,0.085l0.334-0.163l0.467-0.085
		l0.18-0.111l0.161-0.306l0.085-0.364l0.022-0.377l-0.025-0.345l-0.309-0.553l-0.473-0.539l-0.24-0.566l0.618-1.014l0.195-0.851
		l0.779-0.942l0.18-0.572l0.107-0.604l0.224-0.604l0.652-1.026l0.113-0.409l0.05-1.396l0.12-0.63l0.321-0.477l0.921-0.292
		l0.224-0.205l0.211-0.146l0.296,0.055l0.53,0.422l0.252,0.143l0.284-0.036l0.649-0.873l0.252-1.422l0.284-4.167l-0.139-3.919
		l0.123-0.474l0.552-1.044l0.145-0.538l-0.397-0.558l-0.057-0.279l0.069-0.169l0.101-0.149l0.019-1.264l-0.094-0.603l-0.375-1.264
		l-0.085-0.619l0.101-0.642l0.265-0.612l0.419-0.46l0.552-0.175l0.807-0.091l0.287-0.256l0.208-0.424l0.539-0.59l0.634-0.337
		l0.507-0.11l0.397-0.233l0.309-0.706l0.031-0.369l-0.091-0.298l-0.117-0.272l-0.063-0.295l0.085-0.262l0.359-0.395l0.091-0.279
		l0.249-0.615l1.106-0.589l0.252-0.453l0.098-0.44l0.227-0.02l0.265,0.142l0.205,0.045l0.719-0.479l0.044-0.065l0.697-0.301
		l0.454-0.333l2.544-3.308l1.106-0.806l0.397-0.43l0.665-1.061l2.389-2.769l0.536-1.068l0.006-1.048l-0.363-1.074l-0.567-1.125
		l-0.284-1.261l0.463-1.009l1.791-1.849l0.927-0.54l2.534-2.443l1.009-0.54l0.315-0.275l0.668-1.192l0.246-0.31l1.116-1.008
		l0.656-0.378l0.753-0.094l0.035,0.168l0.857,0.142l0.454,0.233l1.226-1.208l0.482-0.171l0.675,0.113l0.668,0.53l0.652,0.194
		l1.381-0.265l1.119-0.885l1.734-1.854l0.854-0.652l0.369-0.494l0.145-0.623l0.076-1.64l0.158-0.739l0.293-0.726l0.738-1.168
		l2.44-2.375h0.265v0.271l-0.407,0.148l-0.258,0.248l-0.057,0.329l0.192,0.378l0.608-0.6l0.775-1.278l1.267-1.4l0.372-0.584
		l0.92-3.135l1.154-2.35l0.454-1.277l0.391-2.759l0.284-0.619l0.561-0.596l0.457-0.654l0.378-0.741l0.306-0.87l0.621-3.943
		l0.378-1.185l0.091-0.821l-0.656-7.162l0.164-4.272l0.158-0.901l0.334-0.698l-0.309-0.357l0.028-0.444l0.173-0.489l0.107-0.476
		l-0.016-2.151l0.041-0.367l0.189-0.428l0.731-1.019l0.101-0.473l0.006-1.08l0.958-5.63l0.035-2.3l0.041-2.893l-0.195-1.435
		l-0.574-1.265l-3.461-5.139l-0.303-0.754l-0.013-0.674l0.322-0.667l1.176-1.418l0.076-0.645l-0.262-0.625l-0.467-0.626
		l-1.608-1.344l-0.246-0.398l-0.164-0.436l-3.669-4.441l-2.471-2.029l-0.571-0.795l-0.192-0.737l-0.073-2.66l-0.132-0.859
		l-0.325-0.842l-2.087-2.963l-0.482-0.881l-0.444-1.921l-0.615-0.807l-1.494-1.546l-2.298-3.713l0.095-0.579l0.359-0.554
		l0.236-0.819l-0.312-1.6l-0.842-1.712l-1.062-1.603l-3.076-3.656l-0.287-0.732l0.192-0.678l0.87-0.927l0.262-0.703l-0.057-0.671
		l-0.236-0.786l-0.315-0.659l-0.318-0.272l0.038-0.451l-1.258-3.637l-0.063-0.748l0.091-1.761l-0.161-0.604l-0.728-1.374
		l-0.167-0.859l-0.883-0.674l-2.913-4.867l-1.106-2.599l-0.794-1.136l-0.154-2.19l1.469-3.077l2.175-2.636l1.942-0.836l-0.845,1.251
		l-2.787,2.336l-1.393,3.258l-0.258,1.037l0.498,0.46l0.404-0.345l2.175-3.699l0.088-0.399l0.195-0.421l0.463-0.128l0.526-0.013
		l0.403-0.077l0.564-0.523l0.419-1.289l0.47-0.785l0.974-1.034l0.217-0.434l0.038-0.431l-0.06-0.919l0.154-0.392l1.144-1.263
		l0.674-0.517l0.697-0.23l-1.929,1.939l-0.454,0.74l0.549-0.325l1.286-0.581l0.709-0.463l0.309-0.067l0.246-0.16l0.098-0.424
		l0.019-0.271l0.076-0.207l0.161-0.134l0.274-0.048l2.399,0.344l0.93-0.335l0.511-1.99l0.57-1.464l0.11-0.587l-0.186-0.58
		l-1.138-1.588l-0.438-1.167l-0.517-2.63l-0.388-1.262l0.52-0.112l0.369,0.051l0.293-0.057l0.284-0.417l0.104-0.382l0.038-2.948
		l-0.18-0.847l-0.369-0.924l-3.584-5.66l-0.463-0.36l-0.545-1.771l-0.325-0.675l-0.306-0.439l-0.466-1.032l-0.271-0.408
		l-0.678-1.471l-0.337-1.792l-2.572-4.631l-5.291-11.988l-1.822-4.481l-1.077-3.939l-1.068-1.146l-0.575-0.655l-0.74-0.901
		l0.202-1.353l-0.207-1.024l-0.643-7.778l-0.381-1.194l-0.082-0.626l-0.063-0.2l-0.117-0.143l-0.057-0.133l0.104-0.187l0.258-0.308
		l0.114-0.2l0.095-0.4l0.11-0.121l0.028-0.137l-0.183-0.302l-1.132,0.73L203,128.233l-2.818-3.921l-3.349-3.097l-2.703-3.985
		l-3.581-6.507l-1.403-3.304l-1.022-2.203l-1.036-1.433l-0.941-1.307l-0.984-1.325l-1.538-2.822l-0.17-1.283l0.59-0.707l0.866-0.236
		l0.813-0.472l-0.257,0.599l-0.086,1.112l0.856-0.087l1.369-0.388l1.966-0.046l2.478-0.561l1.195-0.77l0.853-0.3l1.195-0.173
		l2.021-1.104l0.492-0.209l0.941,0.028l0.811,0.298l0.982,0.298l1.024,0.17l1.109-0.3l1.792-0.386l1.706-0.6l0.81-0.598l1.75-0.77
		l0.724-0.982l0.767-0.94l0.255-0.726l0.512-0.47l0.978-0.215l0.725-0.087l0.639-0.3l0.683,0.084l1.417,0.131l0.435-0.038
		l0.671-0.26l1.57-0.849l0.549-0.206l0.041-0.003l3.271,0.278l1.613,0.406l1.221,0.648l0.428-0.31l0.785-0.845l0.256-0.177
		l1.273,0.024l3.095,0.056l1.141,0.354l0.468-0.02l0.709-0.298l0.368-0.076l3.058,0.326l6.415-0.519l5.284-0.423l1.501,0.455
		l0.929,0.531l0.577,0.217l4.608-0.35l0.889,0.101l2.29,0.813l0.761,0.101l4.039,0.076l3.507,0.072l1.761-0.306l2.462,0.628
		l1.197,0.117l4.924-0.906l2.166-0.036l1.453-0.024l3.535-0.06l3.531-0.06l3.535-0.056l3.535-0.06l3.535-0.06l3.531-0.056
		l3.535-0.06l3.535-0.056l3.535-0.06l3.535-0.056l3.531-0.06l3.539-0.06l3.531-0.06l3.535-0.06l1.021-0.017l2.51-0.043l3.539-0.056
		l2.274-0.036l0.989,0.201l0.669,0.407l0.613,0.491l0.845,0.439l0.633,0.105l0.581-0.085l1.241-0.366l0.769-0.117l0.697,0.024
		l0.689,0.165l1.465,0.596l0.284,0.157l1.437,0.712l-0.128,0.33l-0.52,0.616l0.004,0.249l0.372,0.491l0.192,0.411l0.072,0.362
		l0.156,2.443l0.12,0.439l0.224-0.024l0.364-0.181l0.344-0.048l0.148,0.386l-0.817,0.954l0.769,0.076l0.468,0.35l0.66,0.906
		l0.452,0.242l0.516,0.161l0.416,0.258l0.176,0.523l0.677,0.769l0.344,0.588l-0.092,0.515l-0.276,0.495l-0.096,0.64l0.024,2.855
		l0.06,0.33l0.124,0.363l0.084,0.383l-0.052,0.387l-0.22,0.141l-0.356,0.028l-0.336,0.121l-0.148,0.391l-0.024,1.503l0.068,0.149
		l0.22,0.354l0.256,0.161l0.256-0.056l0.204,0.052l0.08,0.508l-0.224,0.508l-0.352,0.54v0.383l0.841,0.036l-0.252,0.568l0.016,0.439
		l0.244,0.363l0.4,0.371l0.348,0.443l-0.02,0.375l-0.476,0.81l-0.144,0.681l0.124,0.633l0.568,1.306l0.168,0.689l0.112,1.439
		l0.172,0.697l0.3,0.637l2.13,2.995l0.148,0.573l0.064,0.568l0.168,0.524l0.448,0.415l0.42,0.145l0.933,0.097l0.44,0.097
		l0.937,0.661l0.464,0.956l0.292,2.23l-0.092,0.161l-0.136,0.367l0.004,0.367l0.344,0.169l0.444,0.093l0.24,0.238l0.156,0.311
		l0.204,0.303l0.332,0.686l-0.148,0.609l-0.272,0.666l-0.044,0.851l-1.241-0.335l-0.08,0.976l0.793,2.554l-0.072,2.09l0.2,0.335
		l0.376,0.23l0.476,0.512l0.628,0.884l0.1,0.613v0.605l0.172,0.464l1.037,0.315l1.309,0.932l1.001,0.484l0.42,0.392l0.172,0.589
		l0.004,0.425l0.008,0.939l0.228,0.537l0.548,0.367l0.312-0.549l0.232-0.073l0.232,0.161l0.308,0.17l0.825,0.214l0.352,0.182
		l0.144,0.283l-0.208,0.242l-0.456,0.153l-0.448,0.222l-0.208,0.464l0.092,0.371l0.248,0.254l0.328,0.238l0.364,0.335l0.52,0.88
		l0.645,1.874l0.576,0.848l1.89,0.953l0.769,0.577l-0.144,0.735l0.184,0.634l-0.036,0.917l0.092,0.618l0.577-0.275l0.084,0.299
		l0.084,0.069v0.02l-0.168,0.17l0.645,0.271l0.008,0.343l-0.248,0.368l-0.14,0.352l0.208,0.501l0.701,0.626l0.148,0.352l0.176,0.21
		l0.893,0.129l0.384,0.194l0.06,0.368l-0.032,0.485l0.188,0.356l0.737,0.008v0.267l-0.36,0.352l0.268,0.085l0.512,0.004l0.376,0.093
		l0.116,0.44l-0.02,0.501l0.128,0.295l0.564-0.17l0.444,0.501l-0.144,0.348l-0.36,0.364l-0.204,0.533l0.144,0.259l0.348,0.255
		l0.833,0.412l-0.184,0.291l-0.02,0.113l0.084,0.109l0.12,0.287l0.108-0.17l0.236-0.198l0.18-0.19l0.352,1.245l0.204,0.38
		l0.392,0.364l0.853,0.441l0.316,0.287l0.136,0.663l-0.452,1.116l0.304,0.579l0.012,0.023l0.3,0.344l2.166,0.538l1.093-0.02
		l3.287-1.161l1.165,0.093l1.313,0.493l0.476-0.061l2.41-1.33l0.628-0.129l1.293,0.141l1.141,0.55l1.978,1.69l1.033,0.23
		l3.471-0.077l-0.248-0.983l0.044-1.088l0.36-0.902l0.705-0.424l0.596-0.154l1.581-0.756l0.624-0.089l2.89,0.113l1.893,0.073
		l1.449,0.558l0.5,0.032l0.596-0.174l0.849-0.457l0.645-0.093l2.374-0.036l0.236,0.036l0.765-0.028l-0.208-1.463l0.08-0.76
		l0.472-0.331l2.794,0.004h3.031h2.774l0.34,0.214l0.184,1.1l0.24,0.481l0.6,0.93h1.713h4.936h4.944h4.94h4.944h1.057l-0.833-3.04
		l-0.12-1.002l0.112-1.224l0.568-1.79l0.368-1.172l0.765-2.404l0.14-1.022l-0.016-0.945l-0.3-1.014l-0.44-1.046l-0.316-1.046
		l0.076-1.022l2.674,0.218l0.745-0.174l0.556-0.586l0.404-1.531l0.528-0.686l0.028-0.024l0.032-0.02l0.032-0.016l1.101-0.88
		l0.024-1.211l-1.029-2.596l-0.3-1.34l-0.12-1.239l0.42-6.328l0.38-1.255l0.448-0.722l1.069-1.359l0.248-0.629l-0.092-0.415
		l-0.713-1.549h2.022h1.629h1.625h1.625h1.625h1.629h1.629h1.625h1.625h1.629h0.425h1.2h1.629h1.629h1.625h1.625h1.625h1.633h1.862
		l-0.004-0.565l0.172-1.286l0.176-0.561l0.312-0.589l0.32-0.254l0.448-0.069l2.038-0.004l3.239-0.012l3.347-0.008l2.238-0.008
		l-0.905,2.375l-1.053,2.771l-0.6,1.589l-0.813,2.13l-0.24,1.82l0.044,1.852l0.044,1.921l1.802-0.008l2.818-0.008l2.818-0.004
		l2.814-0.012l2.818-0.008l2.818-0.004l2.818-0.012l2.818-0.008l2.814-0.004l2.822-0.008l2.81-0.008l2.818-0.008l2.822-0.008
		l2.814-0.008l2.822-0.008l2.818-0.008l2.814-0.008l1.301-0.008l0.793,0.024l-0.012,0.137l0.14,0.19l0.252,0.089l0.3,0.19
		l0.244,0.295l0.873,1.865l0.216,0.25l0.212,0.363l-0.096,0.323l-0.192,0.279l-0.08,0.214l0.224,0.44l0.272,0.275l0.228,0.291
		l0.096,0.484l-0.044,0.238l-0.2,0.355l-0.044,0.194l0.088,0.226l0.376,0.359l0.088,0.226l-0.072,0.501l-0.352,0.792l-0.128,0.444
		l-0.028,0.489l0.088,0.242l0.128,0.214l0.1,0.388v1.47l-0.128,0.299l-0.565,0.574l-0.128,0.23l-0.072,0.727l-0.174,0.5l-0.27,0.777
		l-0.452,1.325l-0.496,1.442l-0.304,0.873l-0.428,1.24l-0.22,0.643l-0.228,1.717l0.244,1.01l0.048,0.457l-0.128,0.457l-0.56,0.772
		l-0.128,0.376l0.112,2.664l0.176,0.695l0.376,0.315l1.217,0.691l0.26,0.453l0.084,0.95l0.256,0.784l0.42,0.691l0.977,1.136
		l0.236,0.526l0.112,0.659l0.088,1.67l0.416,1.865l0.316,0.704l1.133,1.113l0.384,0.724l-0.287,0.157l-0.306,0.167l-0.208,0.453
		l0.448,0.995l0.949,1.518l0.308,1.68l-0.152,1.724l-0.921,3.012l0.196,0.069l0.12,0.085l0.156,0.069l0.292,0.024l-0.705,1.255
		l-0.42,1.186l-0.456,2.871l-0.4,2.491l-0.272,0.271l-0.296,1.296l-0.396,0.944l-0.316,3.116l0.092,2.038l-0.557,4.491l0.472,3.945
		l-0.012,1.602l-0.408,1.651l-1.197,2.446l-0.248,1.367l-0.404,0.807l-0.052,0.495l0.164,0.43l0.657,0.799l0.26,0.402l0.476,1.599
		l0.444,3.446l0.404,1.636l0.961,1.543l2.458,2.587l0.549,1.527l0.24-0.13l0.601-0.248l0.24-0.134l0.072,1.271l0.468,1.101
		l2.226,2.604l0.384,0.224l0.272-0.085l0.276-0.285l0.428,0.215l0.644,0.561l1.497,0.955l0.529,0.622l0.296,0.874l0.312,1.386
		l0.793,2.151l0.34,1.659l0.188,0.488l-0.268,1.277l0.709,1.793l0.953,1.769l0.689,1.851l0.909,1.611l0.332,1.188l0.565,0.696
		l0.128,0.456l-0.044,0.448l-0.2,0.773l-0.044,0.403l-0.188,0.594l-0.869,1.421l-0.264,0.818l0.084,0.839l0.388,0.529l0.48,0.521
		l0.368,0.827l0.136,1.666l-0.035,0.771l-0.037,0.829l0.096,1.389l0.632,1.019l-0.208,0.24l-0.06,0.122l0.112,1.512l-0.112,0.754
		l-0.38,0.334l-0.737,0.114l-0.961,0.285l-1.621,0.676l-0.697,0.505l-0.901,0.811l-0.669,0.864l0.008,0.648l0.352,0.612l0.825,2.756
		v1.505l0.124,0.2l0.568,0.416l0.124,0.192l0.132,0.681l0.648,1.158l0.252,0.746l0.452,3.484l-0.136,1.661l-0.556,1.616l0.985-0.053
		l0.725-0.453l1.701-1.832l0.564-0.4l3.875-1.314l1.125-0.967l1.225-3.157l1.417-0.208l2.947,1.199l1.445,0.583l1.473,0.42
		l1.501,0.151l1.413-0.249l0.817-0.473l0.837-0.608l0.865-0.432l0.925,0.037l0.793,0.42l1.457,0.971l0.773,0.335l1.489,0.224h1.733
		l3.887-0.669l3.179-0.538l4.251-2.374l2.586-1.444l1.633-0.469l1.569-0.09l1.505,0.131l2.41,0.673l3.275,0.914l1.289,0.098
		l1.521-0.122l1.477,0.171l1.605,0.51l1.549,0.29l1.305-0.477l0.26-0.375l0.296-0.881l0.232-0.4l0.368-0.314l0.825-0.489
		l0.364-0.342l0.316-0.795l0.172-0.934l0.312-0.791L636.353,283.425z M162.179,512.666l0.035,1.544l0.421,1.454l0.038,0.536
		l-0.88-0.842l-0.535-1.186l-1.262-3.98l0.077-1.11l0.382-0.497l0.803-0.689l0.688,0.23l0.069,1.994l0.164,0.885V512.666z"/>
</g>
<g id="Copyright">
	<text transform="matrix(1 0 0 1 681.6426 577.5916)" class="st1 st2">© Vemaps.com</text>
</g>
</svg>
